<svg width="12" height="12" fill="none" xmlns="http://www.w3.org/2000/svg"><path d="M2.466 6a.53.53 0 01.531-.53h2.472V3.002a.53.53 0 011.062 0V5.47h2.472a.53.53 0 110 1.06H6.531v2.468a.53.53 0 01-1.062 0V6.53H2.997a.53.53 0 01-.53-.53z" fill="#B0B0B0"/><path fill-rule="evenodd" clip-rule="evenodd" d="M2.685.183a30.133 30.133 0 016.63 0 2.82 2.82 0 012.489 2.46 28.866 28.866 0 010 6.715 2.82 2.82 0 01-2.489 2.46 30.13 30.13 0 01-6.63 0 2.82 2.82 0 01-2.489-2.46 28.86 28.86 0 010-6.716A2.82 2.82 0 012.685.182zm6.512 1.053a29.07 29.07 0 00-6.394 0c-.81.09-1.459.73-1.552 1.53a27.801 27.801 0 000 6.469c.093.8.742 1.438 1.552 1.529 2.107.235 4.287.235 6.394 0a1.758 1.758 0 001.552-1.53 27.81 27.81 0 000-6.469 1.758 1.758 0 00-1.552-1.529z" fill="#B0B0B0"/></svg>