<svg width="15" height="14" fill="none" xmlns="http://www.w3.org/2000/svg"><path fill-rule="evenodd" clip-rule="evenodd" d="M3.834 9.034a.5.5 0 00.935.258l.602-1.067A3.5 3.5 0 018.94 6.484l.1.015c.017.452.043.903.076 1.355l.045.62c.037.505.6.787 1.025.514a13.086 13.086 0 003.583-3.393l.304-.423a.5.5 0 000-.583l-.304-.424A13.086 13.086 0 0010.186.773a.668.668 0 00-1.025.514l-.045.62a36.33 36.33 0 00-.065 1.092h-.68a4.5 4.5 0 00-4.498 4.392l-.04 1.643zm5.255-3.539a4.5 4.5 0 00-4.2 1.659 3.5 3.5 0 013.483-3.155H9.53a.5.5 0 00.5-.482 39.44 39.44 0 01.082-1.537l.004-.05a12.088 12.088 0 012.84 2.819l.094.131-.094.132a12.088 12.088 0 01-2.84 2.819l-.004-.05a39.805 39.805 0 01-.088-1.73.5.5 0 00-.426-.48l-.51-.076z" fill="#B0B0B0"/><path d="M12.094 10.608c.079-.673.134-1.347.167-2.022a.27.27 0 01.091-.19c.242-.214.477-.436.704-.666.085-.087.234-.026.232.095a30.905 30.905 0 01-.2 2.899 2.927 2.927 0 01-2.582 2.555 31.85 31.85 0 01-7.011 0 2.927 2.927 0 01-2.582-2.555 30.614 30.614 0 010-7.113 2.927 2.927 0 012.582-2.555A31.781 31.781 0 018.134.882c.13.005.22.133.204.262a1.63 1.63 0 00-.008.082l-.035.47a.201.201 0 01-.207.185 30.781 30.781 0 00-4.482.169 1.927 1.927 0 00-1.7 1.677 29.614 29.614 0 000 6.88 1.927 1.927 0 001.7 1.678c2.237.25 4.551.25 6.789 0a1.927 1.927 0 001.7-1.677z" fill="#B0B0B0"/></svg>